# This file uses centimeters as units for non-parametric coordinates.

mtllib key.mtl
g default
v 0.109246 -0.066666 -10.683611
v 0.104038 -0.066666 -10.717265
v 0.088924 -0.066666 -10.747619
v 0.065384 -0.066666 -10.771711
v 0.035721 -0.066666 -10.787181
v 0.002840 -0.066666 -10.792508
v -0.030042 -0.066666 -10.787181
v -0.059704 -0.066666 -10.771711
v -0.083245 -0.066666 -10.747619
v -0.098359 -0.066666 -10.717265
v -0.103567 -0.066666 -10.683611
v -0.098359 -0.066666 -10.649962
v -0.083245 -0.066666 -10.619607
v -0.059704 -0.066666 -10.595515
v -0.030042 -0.066666 -10.580045
v 0.002840 -0.066666 -10.574718
v 0.035721 -0.066666 -10.580045
v 0.065384 -0.066666 -10.595515
v 0.088924 -0.066666 -10.619607
v 0.104038 -0.066666 -10.649962
v 0.109246 0.087809 -10.683611
v 0.104038 0.087809 -10.717265
v 0.088924 0.087809 -10.747619
v 0.065384 0.087809 -10.771711
v 0.035721 0.087809 -10.787181
v 0.002840 0.087809 -10.792508
v -0.030042 0.087809 -10.787181
v -0.059704 0.087809 -10.771711
v -0.083245 0.087809 -10.747619
v -0.098359 0.087809 -10.717265
v -0.103567 0.087809 -10.683611
v -0.098359 0.087809 -10.649962
v -0.083245 0.087809 -10.619607
v -0.059704 0.087809 -10.595515
v -0.030042 0.087809 -10.580045
v 0.002840 0.087809 -10.574718
v 0.035721 0.087809 -10.580045
v 0.065384 0.087809 -10.595515
v 0.088924 0.087809 -10.619607
v 0.104038 0.087809 -10.649962
v 0.384752 0.077237 -10.523000
v 0.365921 0.077237 -10.641897
v 0.311271 0.077237 -10.749154
v 0.226152 0.077237 -10.834273
v 0.118895 0.077237 -10.888923
v -0.000000 0.077237 -10.907753
v -0.118895 0.077237 -10.888923
v -0.226152 0.077237 -10.834273
v -0.311271 0.077237 -10.749154
v -0.365921 0.077237 -10.641897
v -0.384752 0.077237 -10.523000
v -0.365921 0.077237 -10.404108
v -0.311271 0.077237 -10.296851
v -0.226152 0.077237 -10.211731
v -0.118895 0.077237 -10.157081
v 0.000000 0.077237 -10.138249
v 0.118895 0.077237 -10.157081
v 0.226152 0.077237 -10.211729
v 0.311271 0.077237 -10.296851
v 0.365921 0.077237 -10.404108
v 0.384752 -0.077237 -10.523000
v 0.365921 -0.077237 -10.641897
v 0.311271 -0.077237 -10.749154
v 0.226152 -0.077237 -10.834273
v 0.118895 -0.077237 -10.888923
v -0.000000 -0.077237 -10.907753
v -0.118895 -0.077237 -10.888923
v -0.226152 -0.077237 -10.834273
v -0.311271 -0.077237 -10.749154
v -0.365921 -0.077237 -10.641897
v -0.384752 -0.077237 -10.523000
v -0.365921 -0.077237 -10.404108
v -0.311271 -0.077237 -10.296851
v -0.226152 -0.077237 -10.211731
v -0.118895 -0.077237 -10.157081
v 0.000000 -0.077237 -10.138249
v 0.118895 -0.077237 -10.157081
v 0.226152 -0.077237 -10.211729
v 0.311271 -0.077237 -10.296851
v 0.365921 -0.077237 -10.404108
v -0.118895 0.077237 -9.248285
v 0.000000 0.077237 -9.229454
v -0.118895 -0.077237 -9.248285
v 0.000000 -0.077237 -9.229454
v 0.118895 0.077237 -9.248285
v 0.118895 -0.077237 -9.248285
v 0.118895 0.077237 -9.664563
v 0.118895 -0.077237 -9.664563
v 0.000000 -0.077237 -9.645731
v -0.118895 -0.077237 -9.664563
v -0.118895 0.077237 -9.664563
v 0.000000 0.077237 -9.645731
v 0.118895 0.077237 -9.576031
v 0.118895 -0.077237 -9.576031
v 0.000000 -0.077237 -9.557198
v -0.118895 -0.077237 -9.576031
v -0.118895 0.077237 -9.576031
v 0.000000 0.077237 -9.557198
v 0.118895 0.077237 -9.475645
v 0.118895 -0.077237 -9.475645
v 0.000000 -0.077237 -9.456813
v -0.118895 -0.077237 -9.475645
v -0.118895 0.077237 -9.475645
v 0.000000 0.077237 -9.456813
v 0.118895 0.077237 -9.373105
v 0.118895 -0.077237 -9.373105
v 0.000000 -0.077237 -9.354275
v -0.118895 -0.077237 -9.373105
v -0.118895 0.077237 -9.373105
v 0.000000 0.077237 -9.354275
v 0.255673 0.077237 -9.475645
v 0.255673 -0.077237 -9.475645
v 0.255673 0.077237 -9.373105
v 0.255673 -0.077237 -9.373105
v 0.256701 0.077237 -9.664563
v 0.256701 -0.077237 -9.664563
v 0.256701 0.077237 -9.576031
v 0.256701 -0.077237 -9.576031
vt 0.438097 0.683453
vt 0.451684 0.683453
vt 0.451684 0.838789
vt 0.438097 0.838789
vt 0.465269 0.683453
vt 0.465269 0.838789
vt 0.425842 0.683453
vt 0.425842 0.838789
vt 0.477525 0.683453
vt 0.477525 0.838789
vt 0.416116 0.683453
vt 0.416116 0.838789
vt 0.487251 0.683453
vt 0.487251 0.838789
vt 0.331692 0.683453
vt 0.343947 0.683453
vt 0.343947 0.838789
vt 0.331692 0.838789
vt 0.353674 0.683453
vt 0.353674 0.838789
vt 0.318105 0.683453
vt 0.318105 0.838789
vt 0.304520 0.683453
vt 0.304520 0.838789
vt 0.292265 0.683453
vt 0.292265 0.838789
vt 0.282538 0.683453
vt 0.282538 0.838789
vt 0.954010 0.079660
vt 0.954010 0.127662
vt 0.798674 0.127662
vt 0.798674 0.079660
vt 0.954010 0.175662
vt 0.798674 0.175662
vt 0.954010 0.036357
vt 0.798674 0.036357
vt 0.954010 0.218965
vt 0.798674 0.218965
vt 0.954010 0.001992
vt 0.798674 0.001992
vt 0.954010 0.253331
vt 0.798674 0.253331
vt 0.971168 0.430885
vt 0.971168 0.474188
vt 0.815833 0.474188
vt 0.815833 0.430885
vt 0.971168 0.508553
vt 0.815833 0.508553
vt 0.971168 0.382883
vt 0.815833 0.382883
vt 0.971168 0.334883
vt 0.815833 0.334883
vt 0.971168 0.291580
vt 0.815833 0.291580
vt 0.971168 0.257215
vt 0.815833 0.257215
vt 0.790907 0.368899
vt 0.635572 0.368899
vt 0.635572 0.170055
vt 0.790907 0.170055
vt 0.635572 0.134312
vt 0.790907 0.134312
vt 0.635572 0.093784
vt 0.790907 0.093784
vt 0.635572 0.052385
vt 0.790907 0.052385
vt 0.635572 0.001992
vt 0.790907 0.001992
vt 0.654527 0.372783
vt 0.809863 0.372783
vt 0.809863 0.571627
vt 0.654527 0.571627
vt 0.037682 0.842673
vt 0.037682 0.998008
vt 0.001938 0.998008
vt 0.001938 0.842673
vt 0.084381 0.842673
vt 0.084381 0.998008
vt 0.043852 0.998008
vt 0.043852 0.842673
vt 0.132664 0.842673
vt 0.132664 0.998008
vt 0.091265 0.998008
vt 0.091265 0.842673
vt 0.189072 0.842673
vt 0.189072 0.998008
vt 0.138679 0.998008
vt 0.138679 0.842673
vt 0.199277 0.602664
vt 0.201380 0.589077
vt 0.312609 0.524234
vt 0.305007 0.572236
vt 0.199277 0.575492
vt 0.305007 0.476233
vt 0.193175 0.614919
vt 0.282943 0.615538
vt 0.193175 0.563236
vt 0.282943 0.432931
vt 0.183671 0.624645
vt 0.248578 0.649903
vt 0.183671 0.553510
vt 0.248578 0.398564
vt 0.171695 0.630891
vt 0.205275 0.671967
vt 0.171695 0.547264
vt 0.205275 0.376502
vt 0.158420 0.633041
vt 0.157274 0.679569
vt 0.158420 0.545114
vt 0.157274 0.368899
vt 0.145145 0.630891
vt 0.109273 0.671967
vt 0.145145 0.547264
vt 0.109273 0.376502
vt 0.157274 0.170055
vt 0.205275 0.177658
vt 0.133170 0.624645
vt 0.065970 0.649903
vt 0.133170 0.553510
vt 0.065970 0.398566
vt 0.109273 0.177658
vt 0.157274 0.134312
vt 0.205275 0.141915
vt 0.123666 0.614919
vt 0.031605 0.615538
vt 0.123666 0.563236
vt 0.031605 0.432931
vt 0.109273 0.141915
vt 0.157274 0.093784
vt 0.205275 0.101386
vt 0.260911 0.141915
vt 0.260911 0.177658
vt 0.117564 0.602664
vt 0.009541 0.572236
vt 0.117564 0.575492
vt 0.009541 0.476233
vt 0.109273 0.101386
vt 0.157274 0.052386
vt 0.205275 0.059988
vt 0.115461 0.589077
vt 0.001938 0.524234
vt 0.109273 0.059988
vt 0.157274 0.001992
vt 0.205275 0.009595
vt 0.260496 0.059988
vt 0.260496 0.101386
vt 0.109273 0.009595
vt 0.621918 0.109326
vt 0.629521 0.157327
vt 0.518291 0.092484
vt 0.516189 0.078897
vt 0.621918 0.205328
vt 0.516189 0.106069
vt 0.599854 0.066023
vt 0.510087 0.066642
vt 0.599854 0.248630
vt 0.510087 0.118325
vt 0.565489 0.031658
vt 0.500583 0.056916
vt 0.565489 0.282997
vt 0.500583 0.128051
vt 0.522187 0.009594
vt 0.488607 0.050670
vt 0.522187 0.305059
vt 0.488607 0.134297
vt 0.474185 0.001992
vt 0.475332 0.048520
vt 0.474185 0.312663
vt 0.475332 0.136447
vt 0.426184 0.009594
vt 0.462057 0.050670
vt 0.522187 0.503903
vt 0.474185 0.511506
vt 0.426184 0.305059
vt 0.462057 0.134297
vt 0.382882 0.031658
vt 0.450081 0.056916
vt 0.522187 0.539646
vt 0.474185 0.547249
vt 0.426184 0.503903
vt 0.382882 0.282996
vt 0.450081 0.128051
vt 0.348516 0.066023
vt 0.440577 0.066642
vt 0.577823 0.503903
vt 0.577823 0.539646
vt 0.522187 0.580175
vt 0.474185 0.587777
vt 0.426184 0.539646
vt 0.348516 0.248630
vt 0.440577 0.118325
vt 0.326453 0.109326
vt 0.434475 0.078897
vt 0.522187 0.621573
vt 0.474185 0.629175
vt 0.426184 0.580175
vt 0.326453 0.205328
vt 0.434475 0.106069
vt 0.318850 0.157327
vt 0.432373 0.092484
vt 0.577408 0.580175
vt 0.577408 0.621573
vt 0.522187 0.671966
vt 0.474185 0.679569
vt 0.426184 0.621573
vt 0.426184 0.671966
vt 0.398170 0.683453
vt 0.410146 0.683453
vt 0.410146 0.838789
vt 0.398170 0.838789
vt 0.384895 0.683453
vt 0.384895 0.838789
vt 0.371620 0.683453
vt 0.371620 0.838789
vt 0.359644 0.683453
vt 0.359644 0.838789
vt 0.238042 0.838789
vt 0.226066 0.838789
vt 0.226066 0.683453
vt 0.238042 0.683453
vt 0.251317 0.838789
vt 0.251317 0.683453
vt 0.264592 0.838789
vt 0.264592 0.683453
vt 0.276568 0.838789
vt 0.276568 0.683453
vt 0.493222 0.726756
vt 0.493222 0.683453
vt 0.648557 0.683453
vt 0.648557 0.726756
vt 0.493222 0.774757
vt 0.648557 0.774757
vt 0.493222 0.822758
vt 0.648557 0.822758
vt 0.493222 0.866061
vt 0.648557 0.866061
vt 0.220096 0.838789
vt 0.176794 0.838789
vt 0.176794 0.683453
vt 0.220096 0.683453
vt 0.122822 0.838789
vt 0.074821 0.838789
vt 0.074821 0.683453
vt 0.122822 0.683453
vt 0.170823 0.838789
vt 0.170823 0.683453
vt 0.068850 0.838789
vt 0.025548 0.838789
vt 0.025548 0.683453
vt 0.068850 0.683453
vt 0.195575 0.998008
vt 0.195575 0.842673
vt 0.250796 0.842673
vt 0.250796 0.998008
vt 0.258161 0.998008
vt 0.258161 0.842673
vt 0.313382 0.842673
vt 0.313382 0.998008
vt 0.320747 0.998008
vt 0.320747 0.842673
vt 0.376383 0.842673
vt 0.376383 0.998008
vt 0.383332 0.998008
vt 0.383332 0.842673
vt 0.438969 0.842673
vt 0.438969 0.998008
vn -0.953116 0.000000 0.302604
vn -1.000000 0.000000 -0.000000
vn -1.000000 0.000000 -0.000000
vn -0.953116 0.000000 0.302604
vn -0.815401 0.000000 0.578896
vn -0.815401 0.000000 0.578896
vn -0.596704 0.000000 0.802461
vn -0.596704 0.000000 0.802461
vn -0.315528 0.000000 0.948916
vn -0.315528 0.000000 0.948916
vn 0.000000 0.000000 1.000000
vn 0.000000 0.000000 1.000000
vn 0.315528 0.000000 0.948916
vn 0.315528 0.000000 0.948916
vn 0.596704 0.000000 0.802462
vn 0.596704 0.000000 0.802462
vn 0.815401 0.000000 0.578897
vn 0.815401 0.000000 0.578897
vn 0.953116 0.000000 0.302606
vn 0.953116 0.000000 0.302606
vn 1.000000 0.000000 -0.000000
vn 1.000000 0.000000 -0.000000
vn 0.953112 0.000000 -0.302618
vn 0.953112 0.000000 -0.302618
vn 0.815404 0.000000 -0.578892
vn 0.815404 0.000000 -0.578892
vn 0.596704 0.000000 -0.802462
vn 0.596704 0.000000 -0.802462
vn 0.315528 0.000000 -0.948916
vn 0.315528 0.000000 -0.948916
vn 0.000000 0.000000 -1.000000
vn 0.000000 0.000000 -1.000000
vn -0.315528 0.000000 -0.948916
vn -0.315528 0.000000 -0.948916
vn -0.596704 0.000000 -0.802461
vn -0.596704 0.000000 -0.802461
vn -0.815405 0.000000 -0.578891
vn -0.815405 0.000000 -0.578891
vn -0.953112 0.000000 -0.302616
vn -0.953112 0.000000 -0.302616
vn 0.045348 0.998820 -0.017388
vn 0.039460 0.999219 -0.001897
vn 0.037090 0.999310 0.002173
vn 0.043480 0.998994 -0.010958
vn 0.047227 0.998150 -0.038302
vn 0.047244 0.998450 -0.029436
vn 0.041151 0.997176 -0.062821
vn 0.044645 0.997560 -0.053679
vn 0.024294 0.996202 -0.083610
vn 0.029521 0.996414 -0.079294
vn 0.000202 0.995826 -0.091277
vn -0.000246 0.995826 -0.091266
vn -0.023771 0.996289 -0.082724
vn -0.029303 0.996534 -0.077848
vn -0.040229 0.997292 -0.061559
vn -0.043637 0.997676 -0.052327
vn -0.046060 0.998240 -0.037358
vn -0.046077 0.998525 -0.028705
vn -0.044262 0.998876 -0.016946
vn -0.042497 0.999039 -0.010737
vn -0.038623 0.999252 -0.001826
vn -0.036385 0.999336 0.002096
vn -0.031411 0.999468 0.008795
vn -0.029345 0.999508 0.011058
vn -0.023664 0.999592 0.016019
vn -0.022030 0.999610 0.017184
vn -0.015783 0.999661 0.020686
vn -0.014678 0.999668 0.021171
vn -0.007887 0.999697 0.023324
vn -0.007344 0.999698 0.023439
vn 0.000014 0.999707 0.024208
vn -0.000018 0.999707 0.024208
vn 0.007949 0.999694 0.023417
vn 0.007338 0.999696 0.023539
vn 0.015946 0.999655 0.020851
vn 0.014760 0.999663 0.021354
vn 0.023997 0.999581 0.016206
vn 0.022262 0.999601 0.017412
vn 0.031975 0.999449 0.008919
vn 0.029787 0.999493 0.011264
vn 0.951057 0.000000 -0.309015
vn 1.000000 0.000000 -0.000001
vn 1.000000 0.000000 -0.000001
vn 0.951057 0.000000 -0.309015
vn 0.809017 0.000000 -0.587785
vn 0.809017 0.000000 -0.587785
vn 0.587786 0.000000 -0.809017
vn 0.587786 0.000000 -0.809017
vn 0.309011 0.000000 -0.951058
vn 0.309011 0.000000 -0.951058
vn 0.000000 0.000000 -1.000000
vn 0.000000 0.000000 -1.000000
vn -0.309011 0.000000 -0.951058
vn -0.309011 0.000000 -0.951058
vn -0.587786 0.000000 -0.809017
vn -0.587786 0.000000 -0.809017
vn -0.809017 0.000000 -0.587785
vn -0.809017 0.000000 -0.587785
vn -0.951057 0.000000 -0.309015
vn -0.951057 0.000000 -0.309015
vn -1.000000 0.000000 0.000000
vn -1.000000 0.000000 0.000000
vn -0.951056 0.000000 0.309020
vn -0.951056 0.000000 0.309020
vn -0.809017 0.000000 0.587785
vn -0.809017 0.000000 0.587785
vn -0.587786 0.000000 0.809017
vn -0.587786 0.000000 0.809017
vn -0.453992 0.000000 0.891006
vn -0.453992 0.000000 0.891006
vn 0.000000 0.000000 1.000000
vn -0.156437 0.000000 0.987688
vn -0.156437 0.000000 0.987688
vn 0.000000 0.000000 1.000000
vn 0.156437 0.000000 0.987688
vn 0.156437 0.000000 0.987688
vn 0.587786 0.000000 0.809017
vn 0.453973 0.000000 0.891016
vn 0.453973 0.000000 0.891016
vn 0.587786 0.000000 0.809017
vn 0.809021 0.000000 0.587779
vn 0.809021 0.000000 0.587779
vn 0.951056 0.000000 0.309019
vn 0.951056 0.000000 0.309019
vn -0.043480 -0.998994 0.010958
vn -0.037090 -0.999310 -0.002173
vn -0.039460 -0.999219 0.001897
vn -0.045348 -0.998820 0.017388
vn -0.047244 -0.998449 0.029436
vn -0.047227 -0.998150 0.038302
vn -0.044645 -0.997560 0.053679
vn -0.041151 -0.997176 0.062821
vn -0.029521 -0.996414 0.079294
vn -0.024294 -0.996202 0.083610
vn 0.000246 -0.995827 0.091266
vn -0.000202 -0.995826 0.091277
vn 0.029303 -0.996534 0.077848
vn 0.023771 -0.996289 0.082724
vn 0.043637 -0.997676 0.052327
vn 0.040229 -0.997292 0.061559
vn 0.046077 -0.998525 0.028705
vn 0.046060 -0.998240 0.037358
vn 0.042497 -0.999039 0.010737
vn 0.044262 -0.998876 0.016946
vn 0.036385 -0.999336 -0.002096
vn 0.038623 -0.999252 0.001826
vn 0.029345 -0.999508 -0.011058
vn 0.031411 -0.999468 -0.008795
vn 0.022030 -0.999610 -0.017184
vn 0.023664 -0.999592 -0.016019
vn 0.014678 -0.999668 -0.021171
vn 0.015783 -0.999661 -0.020686
vn 0.007344 -0.999698 -0.023439
vn 0.007887 -0.999697 -0.023324
vn 0.000018 -0.999707 -0.024208
vn -0.000014 -0.999707 -0.024208
vn -0.007338 -0.999696 -0.023539
vn -0.007949 -0.999694 -0.023417
vn -0.014760 -0.999663 -0.021354
vn -0.015946 -0.999655 -0.020851
vn -0.022262 -0.999601 -0.017412
vn -0.023997 -0.999581 -0.016206
vn -0.029787 -0.999493 -0.011264
vn -0.031975 -0.999449 -0.008919
vn 0.000000 1.000000 0.000000
vn 0.000000 1.000000 0.000000
vn 0.000000 1.000000 0.000000
vn 0.000000 1.000000 0.000000
vn -1.000000 0.000000 0.000000
vn -1.000000 0.000000 0.000000
vn -1.000000 0.000000 0.000000
vn -1.000000 0.000000 0.000000
vn 0.000000 -1.000000 0.000000
vn 0.000000 -1.000000 0.000000
vn 0.000000 -1.000000 0.000000
vn 0.000000 -1.000000 0.000000
vn 0.000000 1.000000 0.000000
vn 0.000000 1.000000 0.000000
vn 0.000000 1.000000 0.000000
vn 0.000000 1.000000 0.000000
vn 0.000000 -1.000000 0.000000
vn 0.000000 -1.000000 0.000000
vn 0.000000 -1.000000 0.000000
vn 0.000000 -1.000000 0.000000
vn 1.000000 0.000000 0.000000
vn 1.000000 0.000000 0.000000
vn 1.000000 0.000000 0.000000
vn 1.000000 0.000000 0.000000
vn 1.000000 0.000000 0.000000
vn 1.000000 0.000000 0.000000
vn 1.000000 0.000000 0.000000
vn 1.000000 0.000000 0.000000
vn 0.000000 -1.000000 0.000000
vn 0.000000 -1.000000 0.000000
vn 0.000000 -1.000000 0.000000
vn 0.000000 -1.000000 0.000000
vn -1.000000 0.000000 0.000000
vn -1.000000 0.000000 0.000000
vn 0.000000 1.000000 0.000000
vn 0.000000 1.000000 0.000000
vn 0.000000 1.000000 0.000000
vn 0.000000 1.000000 0.000000
vn 1.000000 0.000000 0.000000
vn 1.000000 0.000000 0.000000
vn 1.000000 0.000000 0.000000
vn 1.000000 0.000000 0.000000
vn -0.000000 -1.000000 -0.000000
vn -0.000000 -1.000000 -0.000000
vn 0.000000 -1.000000 -0.000000
vn 0.000000 -1.000000 -0.000000
vn -1.000000 0.000000 0.000000
vn -1.000000 0.000000 0.000000
vn -0.000000 1.000000 0.000000
vn -0.000000 1.000000 0.000000
vn 0.000000 1.000000 0.000000
vn 0.000000 1.000000 0.000000
vn 1.000000 0.000000 -0.000001
vn 1.000000 0.000000 -0.000001
vn 1.000000 0.000000 -0.000001
vn 1.000000 0.000000 -0.000001
vn -0.000000 -1.000000 -0.000000
vn 0.000000 -1.000000 0.000000
vn -0.000000 -1.000000 0.000000
vn 0.000000 -1.000000 -0.000000
vn -1.000000 0.000000 -0.000000
vn -1.000000 0.000000 -0.000000
vn -0.000000 1.000000 0.000000
vn 0.000000 1.000000 -0.000000
vn -0.000000 1.000000 -0.000000
vn 0.000000 1.000000 0.000000
vn 1.000000 0.000000 0.000000
vn 1.000000 0.000000 0.000000
vn 1.000000 0.000000 0.000000
vn 1.000000 0.000000 0.000000
vn 0.000000 -1.000000 0.000000
vn 0.000000 -1.000000 0.000000
vn -0.000000 -1.000000 0.000000
vn -0.000000 -1.000000 0.000000
vn -1.000000 0.000000 0.000000
vn -1.000000 0.000000 0.000000
vn 0.000000 1.000000 -0.000000
vn 0.000000 1.000000 -0.000000
vn -0.000000 1.000000 -0.000000
vn -0.000000 1.000000 -0.000000
vn 0.000000 0.000000 -1.000000
vn 0.000000 0.000000 -1.000000
vn 0.000000 0.000000 -1.000000
vn 0.000000 0.000000 -1.000000
vn 0.000000 1.000000 0.000000
vn 0.000000 1.000000 0.000000
vn 0.000000 1.000000 0.000000
vn 0.000000 1.000000 0.000000
vn 0.000000 0.000000 1.000000
vn 0.000000 0.000000 1.000000
vn 0.000000 0.000000 1.000000
vn 0.000000 0.000000 1.000000
vn 0.000000 -1.000000 -0.000000
vn 0.000000 -1.000000 -0.000000
vn 0.000000 -1.000000 -0.000000
vn 0.000000 -1.000000 -0.000000
vn 0.000000 0.000000 -1.000000
vn 0.000000 0.000000 -1.000000
vn 0.000000 0.000000 -1.000000
vn 0.000000 0.000000 -1.000000
vn 0.000000 1.000000 0.000000
vn 0.000000 1.000000 0.000000
vn 0.000000 0.000000 1.000000
vn 0.000000 0.000000 1.000000
vn 0.000000 0.000000 1.000000
vn 0.000000 0.000000 1.000000
vn 0.000000 -1.000000 0.000000
vn 0.000000 -1.000000 0.000000
s 1
g pPipe1
usemtl initialShadingGroup
f 2/1/1 1/2/2 21/3/3 22/4/4
f 3/7/5 2/1/1 22/4/4 23/8/6
f 4/11/7 3/7/5 23/8/6 24/12/8
f 5/207/9 4/208/7 24/209/8 25/210/10
f 6/211/11 5/207/9 25/210/10 26/212/12
f 7/213/13 6/211/11 26/212/12 27/214/14
f 8/215/15 7/213/13 27/214/14 28/216/16
f 9/16/17 8/19/15 28/20/16 29/17/18
f 10/15/19 9/16/17 29/17/18 30/18/20
f 11/21/21 10/15/19 30/18/20 31/22/22
f 12/23/23 11/21/21 31/22/22 32/24/24
f 13/25/25 12/23/23 32/24/24 33/26/26
f 14/27/27 13/25/25 33/26/26 34/28/28
f 15/217/29 14/218/27 34/219/28 35/220/30
f 16/221/31 15/217/29 35/220/30 36/222/32
f 17/223/33 16/221/31 36/222/32 37/224/34
f 18/225/35 17/223/33 37/224/34 38/226/36
f 19/9/37 18/13/35 38/14/36 39/10/38
f 20/5/39 19/9/37 39/10/38 40/6/40
f 1/2/2 20/5/39 40/6/40 21/3/3
s 2
f 22/89/41 21/90/42 41/91/43 42/92/44
f 23/95/45 22/89/41 42/92/44 43/96/46
f 24/99/47 23/95/45 43/96/46 44/100/48
f 25/103/49 24/99/47 44/100/48 45/104/50
f 26/107/51 25/103/49 45/104/50 46/108/52
f 27/111/53 26/107/51 46/108/52 47/112/54
f 28/117/55 27/111/53 47/112/54 48/118/56
f 29/124/57 28/117/55 48/118/56 49/125/58
f 30/133/59 29/124/57 49/125/58 50/134/60
f 31/140/61 30/133/59 50/134/60 51/141/62
f 32/135/63 31/140/61 51/141/62 52/136/64
f 33/126/65 32/135/63 52/136/64 53/127/66
f 34/119/67 33/126/65 53/127/66 54/120/68
f 35/113/69 34/119/67 54/120/68 55/114/70
f 36/109/71 35/113/69 55/114/70 56/110/72
f 37/105/73 36/109/71 56/110/72 57/106/74
f 38/101/75 37/105/73 57/106/74 58/102/76
f 39/97/77 38/101/75 58/102/76 59/98/78
f 40/93/79 39/97/77 59/98/78 60/94/80
f 21/90/42 40/93/79 60/94/80 41/91/43
s 3
f 42/29/81 41/30/82 61/31/83 62/32/84
f 43/35/85 42/29/81 62/32/84 63/36/86
f 44/39/87 43/35/85 63/36/86 64/40/88
f 45/227/89 44/228/87 64/229/88 65/230/90
f 46/231/91 45/227/89 65/230/90 66/232/92
f 47/233/93 46/231/91 66/232/92 67/234/94
f 48/235/95 47/233/93 67/234/94 68/236/96
f 49/44/97 48/47/95 68/48/96 69/45/98
f 50/43/99 49/44/97 69/45/98 70/46/100
f 51/49/101 50/43/99 70/46/100 71/50/102
f 52/51/103 51/49/101 71/50/102 72/52/104
f 53/53/105 52/51/103 72/52/104 73/54/106
f 54/55/107 53/53/105 73/54/106 74/56/108
f 55/237/109 54/238/107 74/239/108 75/240/110
s 4
f 82/241/111 81/242/112 83/243/113 84/244/114
f 85/245/115 82/241/111 84/244/114 86/246/116
s 3
f 58/247/117 57/248/118 77/249/119 78/250/120
f 59/37/121 58/41/117 78/42/120 79/38/122
f 60/33/123 59/37/121 79/38/122 80/34/124
f 41/30/82 60/33/123 80/34/124 61/31/83
s 6
f 62/148/125 61/149/126 1/150/127 2/151/128
f 63/154/129 62/148/125 2/151/128 3/155/130
f 64/158/131 63/154/129 3/155/130 4/159/132
f 65/162/133 64/158/131 4/159/132 5/163/134
f 66/166/135 65/162/133 5/163/134 6/167/136
f 67/170/137 66/166/135 6/167/136 7/171/138
f 68/176/139 67/170/137 7/171/138 8/177/140
f 69/183/141 68/176/139 8/177/140 9/184/142
f 70/192/143 69/183/141 9/184/142 10/193/144
f 71/199/145 70/192/143 10/193/144 11/200/146
f 72/197/147 71/199/145 11/200/146 12/198/148
f 73/190/149 72/197/147 12/198/148 13/191/150
f 74/181/151 73/190/149 13/191/150 14/182/152
f 75/174/153 74/181/151 14/182/152 15/175/154
f 76/168/155 75/174/153 15/175/154 16/169/156
f 77/164/157 76/168/155 16/169/156 17/165/158
f 78/160/159 77/164/157 17/165/158 18/161/160
f 79/156/161 78/160/159 18/161/160 19/157/162
f 80/152/163 79/156/161 19/157/162 20/153/164
f 61/149/126 80/152/163 20/153/164 1/150/127
s 7
f 56/110/165 55/114/166 91/121/167 92/115/168
s 8
f 55/57/169 75/58/170 90/59/171 91/60/172
s 9
f 75/174/173 76/168/174 89/173/175 90/180/176
s 10
f 57/106/177 56/110/178 92/115/179 87/116/180
s 11
f 76/168/181 77/164/182 88/172/183 89/173/184
s off
f 77/69/185 57/70/186 87/71/187 88/72/188
f 116/73/189 115/74/190 117/75/191 118/76/192
s 11
f 89/173/184 88/172/183 94/178/193 95/179/194
s 9
f 90/180/176 89/173/175 95/179/195 96/189/196
s 8
f 91/60/172 90/59/171 96/61/197 97/62/198
s 7
f 92/115/168 91/121/167 97/128/199 98/122/200
s 10
f 87/116/180 92/115/179 98/122/201 93/123/202
s off
f 94/77/203 93/78/204 99/79/205 100/80/206
s 11
f 95/179/194 94/178/193 100/187/207 101/188/208
s 9
f 96/189/196 95/179/195 101/188/209 102/196/210
s 8
f 97/62/198 96/61/197 102/63/211 103/64/212
s 7
f 98/122/200 97/128/199 103/137/213 104/129/214
s 10
f 93/123/202 98/122/201 104/129/215 99/130/216
s off
f 112/81/217 111/82/218 113/83/219 114/84/220
s 11
f 101/188/208 100/187/207 106/194/221 107/195/222
s 9
f 102/196/210 101/188/209 107/195/223 108/205/224
s 8
f 103/64/212 102/63/211 108/65/225 109/66/226
s 7
f 104/129/214 103/137/213 109/142/227 110/138/228
s 10
f 99/130/216 104/129/215 110/138/229 105/139/230
s off
f 106/85/231 105/86/232 85/87/233 86/88/234
s 11
f 107/195/222 106/194/221 86/203/235 84/204/236
s 9
f 108/205/224 107/195/223 84/204/237 83/206/238
s 8
f 109/66/226 108/65/225 83/67/239 81/68/240
s 7
f 110/138/228 109/142/227 81/147/241 82/143/242
s 10
f 105/139/230 110/138/229 82/143/243 85/144/244
s off
f 100/251/245 99/252/246 111/253/247 112/254/248
f 99/130/249 105/139/250 113/145/251 111/146/252
f 105/255/253 106/256/254 114/257/255 113/258/256
f 106/194/257 100/187/258 112/201/259 114/202/260
f 88/259/261 87/260/262 115/261/263 116/262/264
s 10
f 87/116/180 93/123/202 117/131/265 115/132/266
s off
f 93/263/267 94/264/268 118/265/269 117/266/270
s 11
f 94/178/193 88/172/183 116/185/271 118/186/272
